<svg width="16" height="16" viewBox="0 0 16 16" fill="none" xmlns="http://www.w3.org/2000/svg">
<g clip-path="url(#clip0_4_3)">
<path d="M12.648 0.572746L8 5.221C6.45075 3.67225 4.901 2.122 3.3515 0.572746C1.559 -1.21975 -1.2195 1.55975 0.571496 3.35275C2.12125 4.901 3.6715 6.4515 5.2195 8.00075C3.67079 9.5507 2.12145 11.1 0.571496 12.6487C-1.2195 14.4407 1.55925 17.2195 3.3515 15.4287C4.901 13.8787 6.45041 12.3292 7.99975 10.7802L12.6477 15.4287C14.4402 17.2207 17.2195 14.441 15.4277 12.6487C13.8782 11.0991 12.3285 9.54958 10.7785 8.00025C12.3282 6.45041 13.8779 4.90075 15.4277 3.35125C17.2197 1.55975 14.4405 -1.21975 12.6477 0.573746" fill="#EC1C24"/>
</g>
<defs>
<clipPath id="clip0_4_3">
<rect width="16" height="16" fill="white"/>
</clipPath>
</defs>
</svg>
